# xmcd
#
# Track frame offsets: 
#        150
#        23205
#        34877
#        51050
#        61250
#        81516
#        100500
#        113917
#        156695
#        171011
#
# Disc length: 2461 seconds
#
# Revision: 0
# Processed by: cddbd v1.5.2PL0 Copyright (c) Steve Scherf et al.
# Submitted via: ExactAudioCopy v0.99pb4
#
DISCID=7f099b0a
DTITLE=Hawnay Troof - Remixes of Ayle
DYEAR=2008
DGENRE=JPop
TTITLE0=The Gods are Crazy (Ssion Remix)
TTITLE1=Because Of the Teens (Eye Massacare Remix(
TTITLE2=Jock Jam Rave Mix (Mae Shi Remix)
TTITLE3=Connection (Club Murder Remix)
TTITLE4=The Gods Are Crazy (Soft Pink Truth Remix)
TTITLE5=Front My Hope (Hawnay Troof Remix)
TTITLE6=Connection (Lucky Dragons Remix)
TTITLE7=Remix Hawnay Troof (Disaster Remix)
TTITLE8=The Gods Are Crazy (Hawnay Troof Remix)
TTITLE9=Out Of Teen (Xiu Xiu Remix)
EXTD=
EXTT0=
EXTT1=
EXTT2=
EXTT3=
EXTT4=
EXTT5=
EXTT6=
EXTT7=
EXTT8=
EXTT9=
PLAYORDER=
